<mxfile host="app.diagrams.net" modified="2021-01-29T15:50:02.459Z" agent="5.0 (Windows NT 10.0; Win64; x64) AppleWebKit/537.36 (KHTML, like Gecko) Chrome/88.0.4324.96 Safari/537.36" etag="01LXA9SyL_zUyEfYuZFo" version="14.2.7" type="github">
  <diagram id="C5RBs43oDa-KdzZeNtuy" name="Page-1">
    <mxGraphModel dx="458" dy="424" grid="1" gridSize="10" guides="1" tooltips="1" connect="1" arrows="1" fold="1" page="1" pageScale="1" pageWidth="827" pageHeight="1169" math="0" shadow="0">
      <root>
        <mxCell id="WIyWlLk6GJQsqaUBKTNV-0" />
        <mxCell id="WIyWlLk6GJQsqaUBKTNV-1" parent="WIyWlLk6GJQsqaUBKTNV-0" />
        <mxCell id="-8n2KqMYg6asffcbX5Bx-27" value="" style="edgeStyle=orthogonalEdgeStyle;rounded=0;orthogonalLoop=1;jettySize=auto;html=1;" edge="1" parent="WIyWlLk6GJQsqaUBKTNV-1" source="WIyWlLk6GJQsqaUBKTNV-3" target="-8n2KqMYg6asffcbX5Bx-9">
          <mxGeometry relative="1" as="geometry" />
        </mxCell>
        <mxCell id="WIyWlLk6GJQsqaUBKTNV-3" value="Say &quot;1&quot;" style="rounded=1;whiteSpace=wrap;html=1;fontSize=12;glass=0;strokeWidth=1;shadow=0;" parent="WIyWlLk6GJQsqaUBKTNV-1" vertex="1">
          <mxGeometry x="80" y="244" width="120" height="40" as="geometry" />
        </mxCell>
        <mxCell id="WIyWlLk6GJQsqaUBKTNV-5" value="No" style="edgeStyle=orthogonalEdgeStyle;rounded=0;html=1;jettySize=auto;orthogonalLoop=1;fontSize=11;endArrow=block;endFill=0;endSize=8;strokeWidth=1;shadow=0;labelBackgroundColor=none;exitX=0.5;exitY=1;exitDx=0;exitDy=0;entryX=0.5;entryY=0;entryDx=0;entryDy=0;" parent="WIyWlLk6GJQsqaUBKTNV-1" source="WIyWlLk6GJQsqaUBKTNV-6" target="WIyWlLk6GJQsqaUBKTNV-7" edge="1">
          <mxGeometry y="10" relative="1" as="geometry">
            <mxPoint as="offset" />
            <Array as="points">
              <mxPoint x="485" y="420" />
              <mxPoint x="485" y="420" />
            </Array>
          </mxGeometry>
        </mxCell>
        <mxCell id="WIyWlLk6GJQsqaUBKTNV-6" value="evenlyDivisible&lt;br&gt;by 3?" style="rhombus;whiteSpace=wrap;html=1;shadow=0;fontFamily=Helvetica;fontSize=12;align=center;strokeWidth=1;spacing=6;spacingTop=-4;" parent="WIyWlLk6GJQsqaUBKTNV-1" vertex="1">
          <mxGeometry x="400" y="294" width="170" height="46" as="geometry" />
        </mxCell>
        <mxCell id="WIyWlLk6GJQsqaUBKTNV-7" value="SAY iCounter" style="rounded=1;whiteSpace=wrap;html=1;fontSize=12;glass=0;strokeWidth=1;shadow=0;" parent="WIyWlLk6GJQsqaUBKTNV-1" vertex="1">
          <mxGeometry x="450" y="515" width="70" height="50" as="geometry" />
        </mxCell>
        <mxCell id="WIyWlLk6GJQsqaUBKTNV-8" value="No" style="rounded=0;html=1;jettySize=auto;orthogonalLoop=1;fontSize=11;endArrow=block;endFill=0;endSize=8;strokeWidth=1;shadow=0;labelBackgroundColor=none;edgeStyle=orthogonalEdgeStyle;" parent="WIyWlLk6GJQsqaUBKTNV-1" target="WIyWlLk6GJQsqaUBKTNV-11" edge="1">
          <mxGeometry x="0.3333" y="20" relative="1" as="geometry">
            <mxPoint as="offset" />
            <mxPoint x="680" y="340" as="sourcePoint" />
          </mxGeometry>
        </mxCell>
        <mxCell id="WIyWlLk6GJQsqaUBKTNV-11" value="Repair Lamp" style="rounded=1;whiteSpace=wrap;html=1;fontSize=12;glass=0;strokeWidth=1;shadow=0;" parent="WIyWlLk6GJQsqaUBKTNV-1" vertex="1">
          <mxGeometry x="580" y="640" width="120" height="40" as="geometry" />
        </mxCell>
        <mxCell id="-8n2KqMYg6asffcbX5Bx-3" value="&lt;span style=&quot;font-size: 24px ; font-weight: 700 ; text-align: center&quot;&gt;fizz Buzz Flowchart&lt;/span&gt;&lt;h1&gt;interview question:&lt;/h1&gt;&lt;p&gt;Design a program that counts from 1 to 100 and says each number, but when it gets to one evenly divisible by 3 it says &quot;fizz&quot; and for 5 it says &quot;buzz&quot; and for one evenly divisible by both it says &quot;fizzbuzz&quot;.&lt;/p&gt;" style="text;html=1;strokeColor=none;fillColor=none;spacing=5;spacingTop=-20;whiteSpace=wrap;overflow=hidden;rounded=0;" vertex="1" parent="WIyWlLk6GJQsqaUBKTNV-1">
          <mxGeometry x="70" y="50" width="700" height="90" as="geometry" />
        </mxCell>
        <mxCell id="-8n2KqMYg6asffcbX5Bx-4" value="" style="shape=filledEdge;rounded=0;fixDash=1;endArrow=none;strokeWidth=10;fillColor=#ffffff;edgeStyle=orthogonalEdgeStyle;" edge="1" parent="WIyWlLk6GJQsqaUBKTNV-1">
          <mxGeometry width="60" height="40" relative="1" as="geometry">
            <mxPoint x="20" y="240" as="sourcePoint" />
            <mxPoint x="20" y="240" as="targetPoint" />
            <Array as="points">
              <mxPoint x="20" y="840" />
              <mxPoint x="801" y="840" />
              <mxPoint x="801" y="30" />
              <mxPoint x="20" y="30" />
            </Array>
          </mxGeometry>
        </mxCell>
        <mxCell id="-8n2KqMYg6asffcbX5Bx-11" value="" style="edgeStyle=orthogonalEdgeStyle;rounded=0;orthogonalLoop=1;jettySize=auto;html=1;" edge="1" parent="WIyWlLk6GJQsqaUBKTNV-1" source="-8n2KqMYg6asffcbX5Bx-7" target="-8n2KqMYg6asffcbX5Bx-8">
          <mxGeometry relative="1" as="geometry" />
        </mxCell>
        <mxCell id="-8n2KqMYg6asffcbX5Bx-7" value="Say &quot;3&quot;" style="rounded=1;whiteSpace=wrap;html=1;fontSize=12;glass=0;strokeWidth=1;shadow=0;" vertex="1" parent="WIyWlLk6GJQsqaUBKTNV-1">
          <mxGeometry x="80" y="351" width="120" height="40" as="geometry" />
        </mxCell>
        <mxCell id="-8n2KqMYg6asffcbX5Bx-19" value="" style="edgeStyle=orthogonalEdgeStyle;rounded=0;orthogonalLoop=1;jettySize=auto;html=1;entryX=0.5;entryY=0;entryDx=0;entryDy=0;" edge="1" parent="WIyWlLk6GJQsqaUBKTNV-1" source="-8n2KqMYg6asffcbX5Bx-8" target="-8n2KqMYg6asffcbX5Bx-13">
          <mxGeometry relative="1" as="geometry" />
        </mxCell>
        <mxCell id="-8n2KqMYg6asffcbX5Bx-8" value="Say &quot;4&quot;" style="rounded=1;whiteSpace=wrap;html=1;fontSize=12;glass=0;strokeWidth=1;shadow=0;" vertex="1" parent="WIyWlLk6GJQsqaUBKTNV-1">
          <mxGeometry x="80" y="405" width="120" height="40" as="geometry" />
        </mxCell>
        <mxCell id="-8n2KqMYg6asffcbX5Bx-10" value="" style="edgeStyle=orthogonalEdgeStyle;rounded=0;orthogonalLoop=1;jettySize=auto;html=1;entryX=0.5;entryY=0;entryDx=0;entryDy=0;" edge="1" parent="WIyWlLk6GJQsqaUBKTNV-1" source="-8n2KqMYg6asffcbX5Bx-9" target="-8n2KqMYg6asffcbX5Bx-7">
          <mxGeometry relative="1" as="geometry" />
        </mxCell>
        <mxCell id="-8n2KqMYg6asffcbX5Bx-9" value="Say &quot;2&quot;" style="rounded=1;whiteSpace=wrap;html=1;fontSize=12;glass=0;strokeWidth=1;shadow=0;" vertex="1" parent="WIyWlLk6GJQsqaUBKTNV-1">
          <mxGeometry x="80" y="297" width="120" height="40" as="geometry" />
        </mxCell>
        <mxCell id="-8n2KqMYg6asffcbX5Bx-25" value="" style="edgeStyle=orthogonalEdgeStyle;rounded=0;orthogonalLoop=1;jettySize=auto;html=1;" edge="1" parent="WIyWlLk6GJQsqaUBKTNV-1" source="-8n2KqMYg6asffcbX5Bx-13" target="-8n2KqMYg6asffcbX5Bx-18">
          <mxGeometry relative="1" as="geometry" />
        </mxCell>
        <mxCell id="-8n2KqMYg6asffcbX5Bx-13" value="Say &quot;5&quot;" style="rounded=1;whiteSpace=wrap;html=1;fontSize=12;glass=0;strokeWidth=1;shadow=0;" vertex="1" parent="WIyWlLk6GJQsqaUBKTNV-1">
          <mxGeometry x="80" y="458" width="120" height="40" as="geometry" />
        </mxCell>
        <mxCell id="-8n2KqMYg6asffcbX5Bx-14" value="" style="edgeStyle=orthogonalEdgeStyle;rounded=0;orthogonalLoop=1;jettySize=auto;html=1;" edge="1" parent="WIyWlLk6GJQsqaUBKTNV-1" source="-8n2KqMYg6asffcbX5Bx-15" target="-8n2KqMYg6asffcbX5Bx-16">
          <mxGeometry relative="1" as="geometry" />
        </mxCell>
        <mxCell id="-8n2KqMYg6asffcbX5Bx-15" value="Say &quot;7&quot;" style="rounded=1;whiteSpace=wrap;html=1;fontSize=12;glass=0;strokeWidth=1;shadow=0;" vertex="1" parent="WIyWlLk6GJQsqaUBKTNV-1">
          <mxGeometry x="80" y="564.5" width="120" height="40" as="geometry" />
        </mxCell>
        <mxCell id="-8n2KqMYg6asffcbX5Bx-26" value="" style="edgeStyle=orthogonalEdgeStyle;rounded=0;orthogonalLoop=1;jettySize=auto;html=1;" edge="1" parent="WIyWlLk6GJQsqaUBKTNV-1" source="-8n2KqMYg6asffcbX5Bx-16" target="-8n2KqMYg6asffcbX5Bx-24">
          <mxGeometry relative="1" as="geometry" />
        </mxCell>
        <mxCell id="-8n2KqMYg6asffcbX5Bx-16" value="...." style="rounded=1;whiteSpace=wrap;html=1;fontSize=12;glass=0;strokeWidth=1;shadow=0;" vertex="1" parent="WIyWlLk6GJQsqaUBKTNV-1">
          <mxGeometry x="80" y="619" width="120" height="40" as="geometry" />
        </mxCell>
        <mxCell id="-8n2KqMYg6asffcbX5Bx-17" value="" style="edgeStyle=orthogonalEdgeStyle;rounded=0;orthogonalLoop=1;jettySize=auto;html=1;entryX=0.5;entryY=0;entryDx=0;entryDy=0;" edge="1" parent="WIyWlLk6GJQsqaUBKTNV-1" source="-8n2KqMYg6asffcbX5Bx-18" target="-8n2KqMYg6asffcbX5Bx-15">
          <mxGeometry relative="1" as="geometry" />
        </mxCell>
        <mxCell id="-8n2KqMYg6asffcbX5Bx-18" value="Say &quot;6&quot;" style="rounded=1;whiteSpace=wrap;html=1;fontSize=12;glass=0;strokeWidth=1;shadow=0;" vertex="1" parent="WIyWlLk6GJQsqaUBKTNV-1">
          <mxGeometry x="80" y="510" width="120" height="40" as="geometry" />
        </mxCell>
        <mxCell id="-8n2KqMYg6asffcbX5Bx-20" value="" style="edgeStyle=orthogonalEdgeStyle;rounded=0;orthogonalLoop=1;jettySize=auto;html=1;" edge="1" parent="WIyWlLk6GJQsqaUBKTNV-1" source="-8n2KqMYg6asffcbX5Bx-21" target="-8n2KqMYg6asffcbX5Bx-22">
          <mxGeometry relative="1" as="geometry" />
        </mxCell>
        <mxCell id="-8n2KqMYg6asffcbX5Bx-21" value="Say &quot;100&quot;" style="rounded=1;whiteSpace=wrap;html=1;fontSize=12;glass=0;strokeWidth=1;shadow=0;" vertex="1" parent="WIyWlLk6GJQsqaUBKTNV-1">
          <mxGeometry x="80" y="726" width="120" height="40" as="geometry" />
        </mxCell>
        <mxCell id="-8n2KqMYg6asffcbX5Bx-22" value="END" style="rounded=1;whiteSpace=wrap;html=1;fontSize=12;glass=0;strokeWidth=1;shadow=0;" vertex="1" parent="WIyWlLk6GJQsqaUBKTNV-1">
          <mxGeometry x="80" y="780" width="120" height="40" as="geometry" />
        </mxCell>
        <mxCell id="-8n2KqMYg6asffcbX5Bx-23" value="" style="edgeStyle=orthogonalEdgeStyle;rounded=0;orthogonalLoop=1;jettySize=auto;html=1;entryX=0.5;entryY=0;entryDx=0;entryDy=0;" edge="1" parent="WIyWlLk6GJQsqaUBKTNV-1" source="-8n2KqMYg6asffcbX5Bx-24" target="-8n2KqMYg6asffcbX5Bx-21">
          <mxGeometry relative="1" as="geometry" />
        </mxCell>
        <mxCell id="-8n2KqMYg6asffcbX5Bx-24" value="Say &quot;99&quot;" style="rounded=1;whiteSpace=wrap;html=1;fontSize=12;glass=0;strokeWidth=1;shadow=0;" vertex="1" parent="WIyWlLk6GJQsqaUBKTNV-1">
          <mxGeometry x="80" y="673" width="120" height="40" as="geometry" />
        </mxCell>
        <mxCell id="-8n2KqMYg6asffcbX5Bx-30" value="" style="edgeStyle=orthogonalEdgeStyle;rounded=0;orthogonalLoop=1;jettySize=auto;html=1;entryX=0.5;entryY=0;entryDx=0;entryDy=0;" edge="1" parent="WIyWlLk6GJQsqaUBKTNV-1" source="-8n2KqMYg6asffcbX5Bx-29" target="WIyWlLk6GJQsqaUBKTNV-3">
          <mxGeometry relative="1" as="geometry" />
        </mxCell>
        <mxCell id="-8n2KqMYg6asffcbX5Bx-29" value="START" style="rounded=1;whiteSpace=wrap;html=1;fontSize=12;glass=0;strokeWidth=1;shadow=0;" vertex="1" parent="WIyWlLk6GJQsqaUBKTNV-1">
          <mxGeometry x="80" y="190" width="120" height="40" as="geometry" />
        </mxCell>
        <mxCell id="-8n2KqMYg6asffcbX5Bx-31" value="SETUP" style="text;strokeColor=none;fillColor=none;html=1;fontSize=24;fontStyle=1;verticalAlign=middle;align=center;" vertex="1" parent="WIyWlLk6GJQsqaUBKTNV-1">
          <mxGeometry x="90" y="150" width="100" height="40" as="geometry" />
        </mxCell>
        <mxCell id="-8n2KqMYg6asffcbX5Bx-33" value="" style="edgeStyle=orthogonalEdgeStyle;rounded=0;orthogonalLoop=1;jettySize=auto;html=1;" edge="1" parent="WIyWlLk6GJQsqaUBKTNV-1" source="-8n2KqMYg6asffcbX5Bx-34" target="-8n2KqMYg6asffcbX5Bx-40">
          <mxGeometry relative="1" as="geometry" />
        </mxCell>
        <mxCell id="-8n2KqMYg6asffcbX5Bx-34" value="DECLARE iCounter" style="rounded=1;whiteSpace=wrap;html=1;fontSize=12;glass=0;strokeWidth=1;shadow=0;" vertex="1" parent="WIyWlLk6GJQsqaUBKTNV-1">
          <mxGeometry x="260" y="244" width="120" height="40" as="geometry" />
        </mxCell>
        <mxCell id="-8n2KqMYg6asffcbX5Bx-35" value="" style="edgeStyle=orthogonalEdgeStyle;rounded=0;orthogonalLoop=1;jettySize=auto;html=1;" edge="1" parent="WIyWlLk6GJQsqaUBKTNV-1" source="-8n2KqMYg6asffcbX5Bx-36" target="-8n2KqMYg6asffcbX5Bx-38">
          <mxGeometry relative="1" as="geometry" />
        </mxCell>
        <mxCell id="-8n2KqMYg6asffcbX5Bx-36" value="Say &quot;3&quot;" style="rounded=1;whiteSpace=wrap;html=1;fontSize=12;glass=0;strokeWidth=1;shadow=0;" vertex="1" parent="WIyWlLk6GJQsqaUBKTNV-1">
          <mxGeometry x="260" y="351" width="120" height="40" as="geometry" />
        </mxCell>
        <mxCell id="-8n2KqMYg6asffcbX5Bx-37" value="" style="edgeStyle=orthogonalEdgeStyle;rounded=0;orthogonalLoop=1;jettySize=auto;html=1;entryX=0.5;entryY=0;entryDx=0;entryDy=0;" edge="1" parent="WIyWlLk6GJQsqaUBKTNV-1" source="-8n2KqMYg6asffcbX5Bx-38" target="-8n2KqMYg6asffcbX5Bx-42">
          <mxGeometry relative="1" as="geometry" />
        </mxCell>
        <mxCell id="-8n2KqMYg6asffcbX5Bx-38" value="Say &quot;4&quot;" style="rounded=1;whiteSpace=wrap;html=1;fontSize=12;glass=0;strokeWidth=1;shadow=0;" vertex="1" parent="WIyWlLk6GJQsqaUBKTNV-1">
          <mxGeometry x="260" y="405" width="120" height="40" as="geometry" />
        </mxCell>
        <mxCell id="-8n2KqMYg6asffcbX5Bx-39" value="" style="edgeStyle=orthogonalEdgeStyle;rounded=0;orthogonalLoop=1;jettySize=auto;html=1;entryX=0.5;entryY=0;entryDx=0;entryDy=0;" edge="1" parent="WIyWlLk6GJQsqaUBKTNV-1" source="-8n2KqMYg6asffcbX5Bx-40" target="-8n2KqMYg6asffcbX5Bx-36">
          <mxGeometry relative="1" as="geometry" />
        </mxCell>
        <mxCell id="-8n2KqMYg6asffcbX5Bx-40" value="INITIALIZE iCounter to starting number (1)" style="rounded=1;whiteSpace=wrap;html=1;fontSize=12;glass=0;strokeWidth=1;shadow=0;" vertex="1" parent="WIyWlLk6GJQsqaUBKTNV-1">
          <mxGeometry x="260" y="297" width="120" height="40" as="geometry" />
        </mxCell>
        <mxCell id="-8n2KqMYg6asffcbX5Bx-41" value="" style="edgeStyle=orthogonalEdgeStyle;rounded=0;orthogonalLoop=1;jettySize=auto;html=1;" edge="1" parent="WIyWlLk6GJQsqaUBKTNV-1" source="-8n2KqMYg6asffcbX5Bx-42" target="-8n2KqMYg6asffcbX5Bx-48">
          <mxGeometry relative="1" as="geometry" />
        </mxCell>
        <mxCell id="-8n2KqMYg6asffcbX5Bx-42" value="Say &quot;5&quot;" style="rounded=1;whiteSpace=wrap;html=1;fontSize=12;glass=0;strokeWidth=1;shadow=0;" vertex="1" parent="WIyWlLk6GJQsqaUBKTNV-1">
          <mxGeometry x="260" y="458" width="120" height="40" as="geometry" />
        </mxCell>
        <mxCell id="-8n2KqMYg6asffcbX5Bx-43" value="" style="edgeStyle=orthogonalEdgeStyle;rounded=0;orthogonalLoop=1;jettySize=auto;html=1;" edge="1" parent="WIyWlLk6GJQsqaUBKTNV-1" source="-8n2KqMYg6asffcbX5Bx-44" target="-8n2KqMYg6asffcbX5Bx-46">
          <mxGeometry relative="1" as="geometry" />
        </mxCell>
        <mxCell id="-8n2KqMYg6asffcbX5Bx-44" value="Say &quot;7&quot;" style="rounded=1;whiteSpace=wrap;html=1;fontSize=12;glass=0;strokeWidth=1;shadow=0;" vertex="1" parent="WIyWlLk6GJQsqaUBKTNV-1">
          <mxGeometry x="260" y="564.5" width="120" height="40" as="geometry" />
        </mxCell>
        <mxCell id="-8n2KqMYg6asffcbX5Bx-45" value="" style="edgeStyle=orthogonalEdgeStyle;rounded=0;orthogonalLoop=1;jettySize=auto;html=1;" edge="1" parent="WIyWlLk6GJQsqaUBKTNV-1" source="-8n2KqMYg6asffcbX5Bx-46" target="-8n2KqMYg6asffcbX5Bx-53">
          <mxGeometry relative="1" as="geometry" />
        </mxCell>
        <mxCell id="-8n2KqMYg6asffcbX5Bx-46" value="...." style="rounded=1;whiteSpace=wrap;html=1;fontSize=12;glass=0;strokeWidth=1;shadow=0;" vertex="1" parent="WIyWlLk6GJQsqaUBKTNV-1">
          <mxGeometry x="260" y="619" width="120" height="40" as="geometry" />
        </mxCell>
        <mxCell id="-8n2KqMYg6asffcbX5Bx-47" value="" style="edgeStyle=orthogonalEdgeStyle;rounded=0;orthogonalLoop=1;jettySize=auto;html=1;entryX=0.5;entryY=0;entryDx=0;entryDy=0;" edge="1" parent="WIyWlLk6GJQsqaUBKTNV-1" source="-8n2KqMYg6asffcbX5Bx-48" target="-8n2KqMYg6asffcbX5Bx-44">
          <mxGeometry relative="1" as="geometry" />
        </mxCell>
        <mxCell id="-8n2KqMYg6asffcbX5Bx-48" value="Say &quot;6&quot;" style="rounded=1;whiteSpace=wrap;html=1;fontSize=12;glass=0;strokeWidth=1;shadow=0;" vertex="1" parent="WIyWlLk6GJQsqaUBKTNV-1">
          <mxGeometry x="260" y="510" width="120" height="40" as="geometry" />
        </mxCell>
        <mxCell id="-8n2KqMYg6asffcbX5Bx-49" value="" style="edgeStyle=orthogonalEdgeStyle;rounded=0;orthogonalLoop=1;jettySize=auto;html=1;" edge="1" parent="WIyWlLk6GJQsqaUBKTNV-1" source="-8n2KqMYg6asffcbX5Bx-50" target="-8n2KqMYg6asffcbX5Bx-51">
          <mxGeometry relative="1" as="geometry" />
        </mxCell>
        <mxCell id="-8n2KqMYg6asffcbX5Bx-50" value="Say &quot;100&quot;" style="rounded=1;whiteSpace=wrap;html=1;fontSize=12;glass=0;strokeWidth=1;shadow=0;" vertex="1" parent="WIyWlLk6GJQsqaUBKTNV-1">
          <mxGeometry x="260" y="726" width="120" height="40" as="geometry" />
        </mxCell>
        <mxCell id="-8n2KqMYg6asffcbX5Bx-51" value="END" style="rounded=1;whiteSpace=wrap;html=1;fontSize=12;glass=0;strokeWidth=1;shadow=0;" vertex="1" parent="WIyWlLk6GJQsqaUBKTNV-1">
          <mxGeometry x="260" y="780" width="120" height="40" as="geometry" />
        </mxCell>
        <mxCell id="-8n2KqMYg6asffcbX5Bx-52" value="" style="edgeStyle=orthogonalEdgeStyle;rounded=0;orthogonalLoop=1;jettySize=auto;html=1;entryX=0.5;entryY=0;entryDx=0;entryDy=0;" edge="1" parent="WIyWlLk6GJQsqaUBKTNV-1" source="-8n2KqMYg6asffcbX5Bx-53" target="-8n2KqMYg6asffcbX5Bx-50">
          <mxGeometry relative="1" as="geometry" />
        </mxCell>
        <mxCell id="-8n2KqMYg6asffcbX5Bx-53" value="Say &quot;99&quot;" style="rounded=1;whiteSpace=wrap;html=1;fontSize=12;glass=0;strokeWidth=1;shadow=0;" vertex="1" parent="WIyWlLk6GJQsqaUBKTNV-1">
          <mxGeometry x="260" y="673" width="120" height="40" as="geometry" />
        </mxCell>
        <mxCell id="-8n2KqMYg6asffcbX5Bx-54" value="" style="edgeStyle=orthogonalEdgeStyle;rounded=0;orthogonalLoop=1;jettySize=auto;html=1;entryX=0.5;entryY=0;entryDx=0;entryDy=0;" edge="1" parent="WIyWlLk6GJQsqaUBKTNV-1" source="-8n2KqMYg6asffcbX5Bx-55" target="-8n2KqMYg6asffcbX5Bx-34">
          <mxGeometry relative="1" as="geometry" />
        </mxCell>
        <mxCell id="-8n2KqMYg6asffcbX5Bx-55" value="START" style="rounded=1;whiteSpace=wrap;html=1;fontSize=12;glass=0;strokeWidth=1;shadow=0;" vertex="1" parent="WIyWlLk6GJQsqaUBKTNV-1">
          <mxGeometry x="260" y="190" width="120" height="40" as="geometry" />
        </mxCell>
        <mxCell id="-8n2KqMYg6asffcbX5Bx-56" value="Yes" style="rounded=0;html=1;jettySize=auto;orthogonalLoop=1;fontSize=11;endArrow=block;endFill=0;endSize=8;strokeWidth=1;shadow=0;labelBackgroundColor=none;edgeStyle=orthogonalEdgeStyle;" edge="1" parent="WIyWlLk6GJQsqaUBKTNV-1" target="-8n2KqMYg6asffcbX5Bx-61">
          <mxGeometry y="20" relative="1" as="geometry">
            <mxPoint as="offset" />
            <mxPoint x="947" y="241.5" as="sourcePoint" />
          </mxGeometry>
        </mxCell>
        <mxCell id="-8n2KqMYg6asffcbX5Bx-57" value="No" style="edgeStyle=orthogonalEdgeStyle;rounded=0;html=1;jettySize=auto;orthogonalLoop=1;fontSize=11;endArrow=block;endFill=0;endSize=8;strokeWidth=1;shadow=0;labelBackgroundColor=none;exitX=0.5;exitY=1;exitDx=0;exitDy=0;entryX=0.5;entryY=0;entryDx=0;entryDy=0;" edge="1" parent="WIyWlLk6GJQsqaUBKTNV-1" target="-8n2KqMYg6asffcbX5Bx-58">
          <mxGeometry y="10" relative="1" as="geometry">
            <mxPoint as="offset" />
            <mxPoint x="862" y="264.5" as="sourcePoint" />
            <Array as="points">
              <mxPoint x="862" y="344.5" />
              <mxPoint x="862" y="344.5" />
            </Array>
          </mxGeometry>
        </mxCell>
        <mxCell id="-8n2KqMYg6asffcbX5Bx-58" value="SAY iCounter" style="rounded=1;whiteSpace=wrap;html=1;fontSize=12;glass=0;strokeWidth=1;shadow=0;" vertex="1" parent="WIyWlLk6GJQsqaUBKTNV-1">
          <mxGeometry x="827" y="439.5" width="70" height="50" as="geometry" />
        </mxCell>
        <mxCell id="-8n2KqMYg6asffcbX5Bx-59" value="No" style="rounded=0;html=1;jettySize=auto;orthogonalLoop=1;fontSize=11;endArrow=block;endFill=0;endSize=8;strokeWidth=1;shadow=0;labelBackgroundColor=none;edgeStyle=orthogonalEdgeStyle;" edge="1" parent="WIyWlLk6GJQsqaUBKTNV-1" source="-8n2KqMYg6asffcbX5Bx-61" target="-8n2KqMYg6asffcbX5Bx-62">
          <mxGeometry x="0.3333" y="20" relative="1" as="geometry">
            <mxPoint as="offset" />
          </mxGeometry>
        </mxCell>
        <mxCell id="-8n2KqMYg6asffcbX5Bx-60" value="Yes" style="edgeStyle=orthogonalEdgeStyle;rounded=0;html=1;jettySize=auto;orthogonalLoop=1;fontSize=11;endArrow=block;endFill=0;endSize=8;strokeWidth=1;shadow=0;labelBackgroundColor=none;" edge="1" parent="WIyWlLk6GJQsqaUBKTNV-1" source="-8n2KqMYg6asffcbX5Bx-61" target="-8n2KqMYg6asffcbX5Bx-63">
          <mxGeometry y="10" relative="1" as="geometry">
            <mxPoint as="offset" />
          </mxGeometry>
        </mxCell>
        <mxCell id="-8n2KqMYg6asffcbX5Bx-61" value="Bulb&lt;br&gt;burned out?" style="rhombus;whiteSpace=wrap;html=1;shadow=0;fontFamily=Helvetica;fontSize=12;align=center;strokeWidth=1;spacing=6;spacingTop=-4;" vertex="1" parent="WIyWlLk6GJQsqaUBKTNV-1">
          <mxGeometry x="967" y="424.5" width="100" height="80" as="geometry" />
        </mxCell>
        <mxCell id="-8n2KqMYg6asffcbX5Bx-62" value="Repair Lamp" style="rounded=1;whiteSpace=wrap;html=1;fontSize=12;glass=0;strokeWidth=1;shadow=0;" vertex="1" parent="WIyWlLk6GJQsqaUBKTNV-1">
          <mxGeometry x="957" y="564.5" width="120" height="40" as="geometry" />
        </mxCell>
        <mxCell id="-8n2KqMYg6asffcbX5Bx-63" value="Replace Bulb" style="rounded=1;whiteSpace=wrap;html=1;fontSize=12;glass=0;strokeWidth=1;shadow=0;" vertex="1" parent="WIyWlLk6GJQsqaUBKTNV-1">
          <mxGeometry x="1117" y="444.5" width="120" height="40" as="geometry" />
        </mxCell>
        <mxCell id="WIyWlLk6GJQsqaUBKTNV-12" value="Replace Bulb" style="rounded=1;whiteSpace=wrap;html=1;fontSize=12;glass=0;strokeWidth=1;shadow=0;" parent="WIyWlLk6GJQsqaUBKTNV-1" vertex="1">
          <mxGeometry x="640" y="311" width="120" height="40" as="geometry" />
        </mxCell>
        <mxCell id="-8n2KqMYg6asffcbX5Bx-64" value="Yes" style="rounded=0;html=1;jettySize=auto;orthogonalLoop=1;fontSize=11;endArrow=block;endFill=0;endSize=8;strokeWidth=1;shadow=0;labelBackgroundColor=none;edgeStyle=orthogonalEdgeStyle;" edge="1" parent="WIyWlLk6GJQsqaUBKTNV-1" source="WIyWlLk6GJQsqaUBKTNV-6" target="WIyWlLk6GJQsqaUBKTNV-12">
          <mxGeometry y="20" relative="1" as="geometry">
            <mxPoint as="offset" />
            <mxPoint x="570" y="317" as="sourcePoint" />
            <mxPoint x="630" y="300" as="targetPoint" />
          </mxGeometry>
        </mxCell>
      </root>
    </mxGraphModel>
  </diagram>
</mxfile>
